<svg width="32" height="32" viewBox="0 0 24 24" fill="none" xmlns="http://www.w3.org/2000/svg">
<path d="M4 9C4 8.44772 4.44772 8 5 8H19C19.5523 8 20 8.44772 20 9V12.5C20 13.8807 18.8807 15 17.5 15C16.1193 15 15 13.8807 15 12.5C15 11.1193 13.8807 10 12.5 10H11.5C10.1193 10 9 11.1193 9 12.5C9 13.8807 7.88071 15 6.5 15C5.11929 15 4 13.8807 4 12.5V9Z" stroke="white" stroke-width="2" stroke-linecap="round" stroke-linejoin="round"/>
<path d="M6 8V6" stroke="white" stroke-width="2" stroke-linecap="round" stroke-linejoin="round"/>
<path d="M18 8V6" stroke="white" stroke-width="2" stroke-linecap="round" stroke-linejoin="round"/>
<path d="M12 8V6" stroke="white" stroke-width="2" stroke-linecap="round" stroke-linejoin="round"/>
</svg>
